<svg width="86" height="18" viewBox="0 0 86 18" fill="none" xmlns="http://www.w3.org/2000/svg">
<path d="M10.9111 4.10398L10.8989 4.09678L10.8705 4.08813C10.882 4.09776 10.8962 4.10333 10.9111 4.10398Z" fill="#0D0C22"/>
<path d="M10.9178 4.10158C10.9158 4.10134 10.9139 4.10087 10.912 4.10022C10.9119 4.10149 10.9119 4.10277 10.912 4.10404C10.9141 4.10377 10.9161 4.10292 10.9178 4.10158Z" fill="#0D0C22"/>
<path d="M11.0773 5.36409L11.098 5.35231L11.1057 5.34803L11.1126 5.34058C11.0995 5.3462 11.0875 5.35418 11.0773 5.36409Z" fill="#0D0C22"/>
<path d="M10.9493 4.13029L10.9291 4.11108L10.9154 4.10364C10.9228 4.11661 10.9349 4.12618 10.9493 4.13029Z" fill="#0D0C22"/>
<path d="M5.93289 16.3611C5.91679 16.368 5.90264 16.3789 5.89185 16.3928L5.90456 16.3846C5.91322 16.3767 5.92544 16.3673 5.93289 16.3611Z" fill="#0D0C22"/>
<path d="M8.84484 15.7901C8.84484 15.7718 8.83596 15.7752 8.8381 15.84C8.8381 15.8348 8.84029 15.8295 8.84122 15.8245C8.84243 15.8129 8.84341 15.8016 8.84484 15.7901Z" fill="#0D0C22"/>
<path d="M8.54461 16.3611C8.52846 16.368 8.51432 16.3789 8.50348 16.3928L8.51624 16.3846C8.52485 16.3767 8.53716 16.3673 8.54461 16.3611Z" fill="#0D0C22"/>
<path d="M3.88154 16.4966C3.86931 16.4859 3.85433 16.479 3.83832 16.4764C3.85129 16.4827 3.86425 16.4889 3.87289 16.4937L3.88154 16.4966Z" fill="#0D0C22"/>
<path d="M3.41774 16.0548C3.41583 16.0359 3.41002 16.0176 3.4007 16.001C3.4073 16.0182 3.41284 16.0359 3.41726 16.0538L3.41774 16.0548Z" fill="#0D0C22"/>
<path d="M6.51837 8.15149C5.88475 8.42276 5.16566 8.73034 4.23366 8.73034C3.84378 8.72954 3.4558 8.67609 3.08026 8.57135L3.72483 15.1892C3.74765 15.4658 3.87366 15.7237 4.07784 15.9117C4.28202 16.0997 4.54941 16.204 4.827 16.204C4.827 16.204 5.74093 16.2514 6.04586 16.2514C6.37411 16.2514 7.35831 16.204 7.35831 16.204C7.6358 16.204 7.90315 16.0996 8.10726 15.9116C8.31141 15.7236 8.43736 15.4657 8.46021 15.1892L9.15059 7.8762C8.84205 7.77084 8.53069 7.70081 8.17967 7.70081C7.5726 7.70059 7.08346 7.90968 6.51837 8.15149Z" fill="#FFDD00"/>
<path d="M1.08533 5.32678L1.09637 5.33713L1.10357 5.34146C1.09802 5.33593 1.09191 5.33102 1.08533 5.32678Z" fill="#0D0C22"/>
<path d="M12.1317 4.71505L12.0347 4.22546C11.9476 3.78617 11.7498 3.37109 11.2989 3.21232C11.1544 3.16153 10.9904 3.1397 10.8796 3.03456C10.7687 2.92942 10.736 2.76614 10.7104 2.61473C10.6629 2.33682 10.6183 2.05868 10.5696 1.78125C10.5276 1.54273 10.4944 1.27479 10.385 1.05598C10.2426 0.762167 9.94716 0.590344 9.65335 0.476665C9.50278 0.420466 9.34913 0.372923 9.19314 0.334271C8.45909 0.140614 7.68734 0.0694161 6.93217 0.0288335C6.02573 -0.0211826 5.11691 -0.00611344 4.21264 0.0739252C3.53958 0.135155 2.83069 0.209201 2.1911 0.442018C1.95733 0.527215 1.71645 0.629502 1.53869 0.810107C1.32059 1.03201 1.24939 1.37518 1.40864 1.6519C1.52184 1.84841 1.7136 1.98724 1.91699 2.07909C2.18191 2.19743 2.45859 2.28748 2.74241 2.34774C3.5327 2.52241 4.35124 2.591 5.15863 2.62019C6.05347 2.65631 6.94981 2.62704 7.84038 2.53262C8.06063 2.50841 8.28048 2.47938 8.49993 2.44552C8.75837 2.40588 8.92424 2.06793 8.84808 1.83251C8.75696 1.55104 8.51202 1.44187 8.23505 1.48435C8.19426 1.49076 8.15368 1.49669 8.11284 1.50262L8.08343 1.5069C7.98958 1.51876 7.89577 1.52984 7.80196 1.54012C7.60813 1.56101 7.41386 1.5781 7.21906 1.59138C6.78289 1.62176 6.34548 1.63576 5.90833 1.63647C5.47877 1.63647 5.04899 1.62437 4.62036 1.59613C4.42481 1.58331 4.22973 1.56702 4.03512 1.54724C3.9466 1.53798 3.85831 1.52826 3.77003 1.51734L3.68601 1.50666L3.66774 1.50405L3.58064 1.49147C3.40265 1.46465 3.22466 1.4338 3.04856 1.39654C3.03079 1.3926 3.0149 1.38271 3.0035 1.36852C2.99211 1.35432 2.9859 1.33666 2.9859 1.31846C2.9859 1.30026 2.99211 1.2826 3.0035 1.2684C3.0149 1.25421 3.03079 1.24432 3.04856 1.24038H3.05188C3.20448 1.20787 3.35827 1.1801 3.51253 1.15589C3.56395 1.14782 3.61553 1.13991 3.66726 1.13216H3.66869C3.76528 1.12575 3.86235 1.10843 3.95847 1.09703C4.7947 1.01005 5.63595 0.980396 6.47624 1.00828C6.88423 1.02014 7.29192 1.04411 7.69801 1.08541C7.78534 1.09442 7.87222 1.10392 7.95906 1.1146C7.99227 1.11863 8.02574 1.12338 8.05921 1.12741L8.1266 1.13714C8.32312 1.16641 8.51859 1.20193 8.71303 1.2437C9.00116 1.30636 9.37113 1.32677 9.4993 1.64241C9.54013 1.74256 9.55861 1.85386 9.58119 1.959L9.6099 2.09309C9.61065 2.09549 9.61118 2.09795 9.61154 2.10045C9.67945 2.41688 9.74737 2.73331 9.81542 3.04975C9.82041 3.07312 9.82054 3.09728 9.81578 3.1207C9.81101 3.14412 9.80149 3.16631 9.78777 3.18589C9.77405 3.20546 9.75641 3.222 9.73604 3.23447C9.71566 3.24694 9.69291 3.25507 9.66922 3.25836H9.66733L9.62578 3.26405L9.58472 3.26951C9.45471 3.28644 9.32447 3.30226 9.19411 3.31698C8.9373 3.34625 8.68013 3.37156 8.42258 3.39292C7.91072 3.43548 7.39785 3.46341 6.88397 3.4767C6.62213 3.48366 6.36034 3.4869 6.09868 3.48643C5.05706 3.48561 4.01632 3.42507 2.98163 3.30511C2.86961 3.29182 2.7576 3.27758 2.64558 3.2631C2.73244 3.27426 2.58245 3.25456 2.55207 3.25029C2.48088 3.24032 2.40968 3.22996 2.33848 3.2192C2.09949 3.18336 1.86193 3.13922 1.62342 3.10054C1.33507 3.05307 1.0593 3.07681 0.798477 3.2192C0.584381 3.33635 0.411102 3.51601 0.301754 3.73419C0.189261 3.96677 0.155798 4.22 0.105485 4.46993C0.0551727 4.71981 -0.0231451 4.98871 0.00652056 5.24525C0.0703612 5.79891 0.457441 6.24889 1.0142 6.34953C1.53798 6.44444 2.06461 6.52136 2.59266 6.58685C4.66693 6.84088 6.76256 6.87127 8.84331 6.67753C9.0128 6.66169 9.18198 6.64445 9.35098 6.62575C9.40377 6.61997 9.45718 6.62606 9.50728 6.64357C9.55742 6.66108 9.60298 6.68957 9.64064 6.72701C9.67835 6.76441 9.7072 6.80974 9.72506 6.85976C9.74292 6.90977 9.7494 6.96313 9.74398 7.01592L9.69132 7.52809C9.58512 8.563 9.47896 9.59778 9.37281 10.6326C9.26207 11.7192 9.15058 12.8057 9.03842 13.8922C9.00676 14.1982 8.97514 14.5041 8.94347 14.8099C8.91313 15.1111 8.90885 15.4218 8.85165 15.7194C8.76146 16.1874 8.44463 16.4748 7.9823 16.5799C7.55878 16.6763 7.12609 16.7269 6.69173 16.7308C6.21021 16.7335 5.72892 16.7121 5.24737 16.7147C4.73335 16.7176 4.10371 16.6701 3.7069 16.2875C3.35827 15.9515 3.31009 15.4253 3.26263 14.9704C3.19934 14.368 3.13661 13.7658 3.07443 13.1636L2.72556 9.8152L2.49986 7.64866C2.49606 7.61281 2.49227 7.57744 2.48871 7.54136C2.46166 7.28292 2.27867 7.02995 1.99033 7.043C1.74351 7.0539 1.46299 7.26369 1.49194 7.54136L1.65926 9.14758L2.00528 12.4701C2.10385 13.4139 2.20218 14.3579 2.30027 15.3019C2.31926 15.4828 2.33706 15.6641 2.35699 15.8449C2.46545 16.8332 3.22014 17.3657 4.15473 17.5157C4.70058 17.6035 5.25972 17.6215 5.81364 17.6305C6.5237 17.642 7.24089 17.6693 7.93934 17.5406C8.97434 17.3507 9.75086 16.6597 9.86169 15.5877C9.89335 15.2782 9.92497 14.9686 9.95664 14.659C10.0618 13.635 10.1669 12.611 10.2718 11.5868L10.615 8.24052L10.7723 6.70694C10.7802 6.63091 10.8123 6.55937 10.8639 6.50301C10.9155 6.44665 10.984 6.40837 11.059 6.3939C11.355 6.33622 11.6378 6.23773 11.8483 6.0125C12.1835 5.6539 12.2501 5.18637 12.1317 4.71505ZM0.999016 5.04591C1.00352 5.04375 0.995218 5.08242 0.991659 5.10046C0.990945 5.07321 0.992369 5.04899 0.999016 5.04591ZM1.02773 5.26805C1.03011 5.26638 1.03723 5.27586 1.04458 5.28724C1.03343 5.27683 1.02654 5.26898 1.02773 5.26805ZM1.05597 5.30527C1.06618 5.32261 1.07164 5.33354 1.05597 5.30527V5.30527ZM1.11269 5.35132H1.11412C1.11412 5.35299 1.11673 5.35467 1.11768 5.3563C1.1161 5.35449 1.1146 5.35282 1.11269 5.35132ZM11.0452 5.28252C10.9389 5.3836 10.7787 5.43061 10.6204 5.45408C8.84525 5.71755 7.04415 5.85091 5.24953 5.79203C3.96511 5.74815 2.69423 5.60552 1.42264 5.42585C1.29804 5.4083 1.16301 5.3855 1.07733 5.29367C0.915953 5.1204 0.995218 4.77154 1.03723 4.56223C1.07567 4.37047 1.14924 4.11487 1.37731 4.08758C1.7333 4.04581 2.14672 4.19603 2.49891 4.24943C2.92293 4.31414 3.34854 4.36596 3.77572 4.40488C5.59886 4.57101 7.45263 4.54512 9.26767 4.30212C9.59848 4.25766 9.92815 4.206 10.2566 4.14714C10.5492 4.09469 10.8737 3.9962 11.0505 4.29927C11.1718 4.50574 11.1879 4.782 11.1691 5.0153C11.1633 5.11691 11.1192 5.21253 11.0452 5.28252Z" fill="#0D0C22"/>
<path fill-rule="evenodd" clip-rule="evenodd" d="M21.811 10.2131C21.7074 10.4109 21.5648 10.5832 21.3834 10.7294C21.2021 10.8757 20.9905 10.9948 20.7486 11.0865C20.5068 11.1785 20.2634 11.2402 20.0187 11.2716C19.7739 11.3032 19.5363 11.3004 19.3061 11.263C19.0758 11.2258 18.8799 11.1498 18.7188 11.0349L18.9002 9.15017C19.0671 9.09283 19.2772 9.034 19.5306 8.97371C19.784 8.91355 20.0446 8.87042 20.3124 8.84467C20.5802 8.81878 20.8334 8.82182 21.0726 8.85327C21.3113 8.88484 21.5 8.96083 21.6382 9.08137C21.7131 9.15017 21.7765 9.22474 21.8283 9.3051C21.88 9.38545 21.9117 9.46863 21.9233 9.55467C21.9521 9.79565 21.9147 10.0151 21.811 10.2131ZM19.1765 6.19825C19.2975 6.12367 19.4429 6.0576 19.6127 6.00018C19.7826 5.94294 19.9568 5.90267 20.1353 5.87974C20.3137 5.85694 20.4879 5.85385 20.6579 5.87109C20.8277 5.88838 20.9776 5.93566 21.1071 6.01306C21.2366 6.09059 21.333 6.20248 21.3964 6.34868C21.4597 6.4951 21.477 6.68016 21.4482 6.90389C21.4252 7.08175 21.3545 7.23241 21.2366 7.35572C21.1186 7.47921 20.9745 7.58236 20.8047 7.66558C20.6349 7.74889 20.4549 7.81483 20.265 7.86343C20.0748 7.91234 19.8919 7.94824 19.7164 7.97108C19.5407 7.9941 19.3882 8.00853 19.2587 8.01408C19.129 8.01986 19.044 8.02273 19.0038 8.02273L19.1765 6.19825ZM22.7439 8.99523C22.6517 8.79452 22.5279 8.61811 22.3725 8.46587C22.217 8.31389 22.0326 8.2035 21.8197 8.13462C21.9117 8.06004 22.0025 7.94246 22.0918 7.78175C22.1809 7.62122 22.2572 7.44609 22.3206 7.2568C22.3839 7.06733 22.4272 6.87672 22.4502 6.68443C22.4731 6.49228 22.4644 6.32729 22.4243 6.18952C22.3263 5.84534 22.1723 5.57565 21.9621 5.38054C21.7518 5.18552 21.5073 5.0507 21.2279 4.97603C20.9486 4.90168 20.6406 4.88571 20.3038 4.92876C19.9669 4.97176 19.6227 5.05639 19.2716 5.18261C19.2716 5.15399 19.2745 5.12387 19.2803 5.09229C19.2859 5.06084 19.2888 5.02777 19.2888 4.99328C19.2888 4.90723 19.2457 4.83274 19.1593 4.76955C19.0729 4.70643 18.9735 4.66921 18.8613 4.65761C18.749 4.64628 18.6396 4.67053 18.533 4.73078C18.4264 4.79107 18.353 4.90168 18.3128 5.06203C18.2667 5.57852 18.2206 6.11503 18.1746 6.67142C18.1285 7.22804 18.0796 7.79035 18.0278 8.35844C17.9759 8.92643 17.9241 9.49015 17.8723 10.0495C17.8204 10.609 17.7686 11.1468 17.7168 11.6631C17.7341 11.8181 17.7773 11.9386 17.8464 12.0246C17.9154 12.1108 17.9961 12.1625 18.0883 12.1796C18.1803 12.1969 18.2769 12.1809 18.3775 12.1322C18.4783 12.0836 18.5661 11.9988 18.6411 11.8783C18.8713 12.0046 19.1305 12.0863 19.4184 12.1237C19.7063 12.1609 19.9984 12.1609 20.2952 12.1237C20.5916 12.0863 20.8838 12.0161 21.1718 11.9127C21.4597 11.8095 21.7217 11.6804 21.9578 11.5256C22.1939 11.3706 22.3926 11.1941 22.5539 10.9963C22.715 10.7982 22.8216 10.5845 22.8734 10.3551C22.9252 10.1198 22.9396 9.88465 22.9166 9.64936C22.8936 9.41416 22.8359 9.19621 22.7439 8.99523Z" fill="#0D0C23"/>
<path fill-rule="evenodd" clip-rule="evenodd" d="M31.1689 13.5378C31.1373 13.7272 31.0926 13.9265 31.035 14.1361C30.9774 14.3454 30.9098 14.5362 30.8321 14.7084C30.7544 14.8805 30.6679 15.0195 30.5731 15.1257C30.4779 15.2319 30.3757 15.2764 30.2663 15.2592C30.18 15.2476 30.1252 15.1931 30.1023 15.0957C30.0792 14.998 30.0792 14.8775 30.1023 14.7342C30.1252 14.5907 30.1698 14.4286 30.2361 14.2479C30.3023 14.0672 30.3829 13.8878 30.4779 13.7101C30.5731 13.5321 30.681 13.3615 30.8019 13.198C30.9229 13.0345 31.0494 12.8981 31.1819 12.7892C31.2107 12.8235 31.2236 12.9096 31.2208 13.0474C31.2177 13.1851 31.2005 13.3486 31.1689 13.5378ZM34.0971 9.80274C34.0193 9.7167 33.9243 9.66801 33.812 9.65645C33.6998 9.64498 33.5859 9.70809 33.4709 9.84578C33.3959 9.98343 33.301 10.1155 33.1858 10.2417C33.0706 10.368 32.9512 10.4826 32.8273 10.5859C32.7035 10.6891 32.5855 10.7782 32.4732 10.8527C32.3609 10.9274 32.2731 10.9818 32.2097 11.0162C32.1867 10.8327 32.1737 10.6347 32.171 10.4224C32.1679 10.2101 32.1723 9.99503 32.1839 9.77698C32.2011 9.46712 32.237 9.15452 32.2918 8.83888C32.3465 8.52332 32.4257 8.21346 32.5294 7.90928C32.5294 7.74875 32.4918 7.61816 32.417 7.51774C32.3421 7.41741 32.2515 7.35416 32.145 7.32841C32.0383 7.30265 31.9291 7.31694 31.8168 7.37141C31.7045 7.42601 31.608 7.52506 31.5274 7.66831C31.4583 7.85773 31.3791 8.06999 31.2899 8.30515C31.2005 8.54048 31.0998 8.78 30.9876 9.02384C30.8753 9.26786 30.75 9.50447 30.6118 9.73385C30.4736 9.96345 30.3224 10.1672 30.1583 10.345C29.9943 10.5228 29.8157 10.662 29.6229 10.7624C29.4298 10.8628 29.2213 10.9072 28.9966 10.8958C28.8929 10.8671 28.818 10.7897 28.772 10.6634C28.7259 10.5372 28.6986 10.3793 28.69 10.19C28.6814 10.0007 28.69 9.79268 28.7159 9.56604C28.7418 9.33949 28.7764 9.11421 28.8196 8.89052C28.8627 8.6667 28.9103 8.45444 28.962 8.25364C29.0138 8.05284 29.0627 7.88348 29.1089 7.7458C29.178 7.57953 29.178 7.44021 29.1089 7.32841C29.0398 7.21648 28.9448 7.14203 28.8239 7.10459C28.7029 7.06732 28.5762 7.06887 28.4438 7.10895C28.3113 7.14913 28.2163 7.238 28.1588 7.37569C28.0608 7.61106 27.9715 7.87488 27.891 8.1675C27.8103 8.46008 27.7456 8.76289 27.6967 9.07549C27.6476 9.38826 27.6202 9.69813 27.6145 10.0051C27.6142 10.0251 27.6152 10.044 27.6151 10.0639C27.4895 10.3975 27.3698 10.6496 27.2562 10.8183C27.1093 11.0364 26.9437 11.1311 26.7595 11.1023C26.6787 11.0679 26.6257 10.9876 26.5998 10.8613C26.5736 10.7352 26.5651 10.5803 26.5736 10.3965C26.5825 10.2131 26.6041 10.0051 26.6385 9.77262C26.6732 9.54028 26.7162 9.29931 26.768 9.04969C26.8199 8.79998 26.8746 8.54921 26.9321 8.29664C26.9897 8.04424 27.0415 7.80608 27.0878 7.58226C27.082 7.38146 27.0229 7.22808 26.9106 7.12183C26.7984 7.01581 26.6413 6.97422 26.4399 6.99702C26.3017 7.05444 26.1994 7.12915 26.1332 7.22084C26.0669 7.31258 26.0137 7.43029 25.9734 7.57362C25.9503 7.64833 25.9158 7.79744 25.8698 8.0213C25.8237 8.2449 25.7647 8.5018 25.6927 8.79147C25.6207 9.08135 25.5358 9.3839 25.4379 9.69945C25.34 10.015 25.2306 10.3006 25.1097 10.5558C24.9888 10.8111 24.8563 11.0162 24.7124 11.1712C24.5684 11.326 24.4129 11.3892 24.2459 11.3605C24.1538 11.3432 24.0948 11.2486 24.069 11.0765C24.043 10.9043 24.0387 10.6922 24.0559 10.4396C24.0732 10.1872 24.1077 9.91031 24.1596 9.60917C24.2114 9.30791 24.2646 9.02252 24.3193 8.7527C24.374 8.48315 24.4244 8.2449 24.4706 8.03842C24.5166 7.83184 24.5483 7.69415 24.5656 7.6254C24.5656 7.459 24.528 7.32567 24.4532 7.22512C24.3783 7.12488 24.2877 7.06168 24.1812 7.03579C24.0745 7.01003 23.9652 7.02432 23.8529 7.07879C23.7407 7.13339 23.6442 7.23244 23.5636 7.37569C23.5347 7.53062 23.4973 7.70998 23.4513 7.91365C23.4051 8.11727 23.3606 8.32667 23.3175 8.54189C23.2743 8.75707 23.2338 8.96792 23.1965 9.1745C23.159 9.38107 23.1317 9.56176 23.1144 9.71669C23.1029 9.83714 23.0898 9.98497 23.0756 10.1599C23.0611 10.335 23.0539 10.52 23.0539 10.715C23.0539 10.9102 23.0683 11.1038 23.0972 11.296C23.1259 11.4883 23.1777 11.6647 23.2526 11.8252C23.3274 11.9859 23.4325 12.1178 23.568 12.2211C23.7032 12.3244 23.8746 12.3817 24.0819 12.3933C24.2948 12.4046 24.4805 12.389 24.639 12.3459C24.7973 12.3029 24.9412 12.2354 25.0708 12.1436C25.2004 12.052 25.3184 11.9429 25.425 11.8166C25.5314 11.6905 25.6366 11.5528 25.7403 11.4035C25.8381 11.6217 25.9648 11.7908 26.1203 11.9113C26.2758 12.0318 26.4399 12.1036 26.6126 12.1264C26.7853 12.1492 26.9611 12.1251 27.1396 12.0532C27.318 11.9816 27.4792 11.8597 27.6233 11.6875C27.718 11.5819 27.8075 11.4619 27.8914 11.3293C27.9271 11.3914 27.9649 11.4513 28.0076 11.5067C28.1487 11.6905 28.3402 11.8165 28.5821 11.8854C28.8412 11.9543 29.0944 11.9659 29.3421 11.92C29.5897 11.8741 29.8258 11.7908 30.0504 11.6704C30.275 11.5498 30.4836 11.405 30.6766 11.2357C30.8695 11.0665 31.0379 10.8901 31.1819 10.7064C31.1761 10.8384 31.1732 10.9633 31.1732 11.0807C31.1732 11.1985 31.1704 11.326 31.1647 11.4638C30.8766 11.6647 30.6046 11.9056 30.3484 12.1867C30.0921 12.4677 29.8675 12.7675 29.6746 13.086C29.4818 13.4044 29.3305 13.7272 29.2213 14.0542C29.1118 14.3814 29.0585 14.6868 29.0614 14.9709C29.0642 15.2549 29.1318 15.503 29.2643 15.7152C29.3967 15.9276 29.6127 16.0795 29.9122 16.1714C30.2232 16.269 30.4966 16.2717 30.7328 16.18C30.9688 16.0882 31.1746 15.9361 31.3503 15.7238C31.526 15.5116 31.6699 15.2549 31.7823 14.9537C31.8945 14.6524 31.9838 14.3383 32.05 14.0113C32.1162 13.6842 32.1579 13.3627 32.1752 13.0474C32.1925 12.7317 32.1925 12.4505 32.1752 12.2038C32.6704 11.9974 33.0763 11.7363 33.3931 11.4206C33.7098 11.1053 33.9718 10.7724 34.1791 10.4224C34.2424 10.3363 34.264 10.233 34.244 10.1126C34.2237 9.99207 34.1748 9.88878 34.0971 9.80274Z" fill="#0D0C23"/>
<path fill-rule="evenodd" clip-rule="evenodd" d="M44.9943 9.25429C45.0115 9.12238 45.0375 8.98319 45.0719 8.83686C45.1068 8.69057 45.15 8.54852 45.2016 8.41083C45.2536 8.27314 45.314 8.15415 45.3828 8.05368C45.4521 7.95335 45.5257 7.8816 45.6034 7.83846C45.681 7.7956 45.7599 7.79983 45.8411 7.85139C45.9271 7.90312 45.9804 8.0121 46.0007 8.17836C46.0206 8.34498 46.0007 8.52276 45.9403 8.71209C45.8799 8.90151 45.7718 9.07925 45.6161 9.24564C45.4609 9.41218 45.2505 9.52102 44.9859 9.57266C44.974 9.49253 44.9771 9.38629 44.9943 9.25429ZM47.9871 9.60707C47.8923 9.57857 47.8014 9.57562 47.715 9.59855C47.629 9.62149 47.5739 9.68173 47.5509 9.77937C47.5051 9.96288 47.4314 10.1508 47.3309 10.343C47.2299 10.5352 47.1064 10.7173 46.9595 10.8896C46.8126 11.0616 46.6468 11.2137 46.4629 11.3456C46.2786 11.4776 46.0854 11.5723 45.8839 11.6296C45.6823 11.6928 45.5156 11.6999 45.3828 11.6511C45.2505 11.6025 45.1456 11.5192 45.068 11.4016C44.9899 11.284 44.9339 11.142 44.8995 10.9756C44.8646 10.8092 44.8448 10.6371 44.8391 10.4591C45.1672 10.4822 45.4591 10.4234 45.7158 10.2827C45.9716 10.1423 46.189 9.9557 46.3677 9.72336C46.5463 9.49099 46.6817 9.22994 46.7738 8.94015C46.8656 8.65048 46.9176 8.36214 46.9291 8.07521C46.9348 7.80552 46.8947 7.57755 46.8082 7.39104C46.7218 7.20467 46.6054 7.05957 46.4585 6.95637C46.3116 6.85308 46.1432 6.79284 45.9531 6.77568C45.763 6.75844 45.5703 6.78432 45.3745 6.85308C45.1381 6.93344 44.9383 7.06394 44.7742 7.24476C44.6102 7.42544 44.473 7.63497 44.3641 7.873C44.2543 8.11111 44.1678 8.36783 44.1048 8.64316C44.0412 8.91867 43.9952 9.18977 43.9665 9.45659C43.9406 9.69606 43.9268 9.925 43.9218 10.146C43.9096 10.174 43.8976 10.201 43.8845 10.2311C43.7952 10.4349 43.6914 10.6343 43.5734 10.8293C43.4554 11.0244 43.3244 11.188 43.1805 11.3198C43.0365 11.4518 42.8868 11.4977 42.7314 11.4575C42.6392 11.4347 42.5889 11.3283 42.5802 11.1391C42.5716 10.9497 42.5815 10.7145 42.6104 10.4334C42.6392 10.1523 42.6723 9.84804 42.7097 9.52102C42.7471 9.194 42.7658 8.8814 42.7658 8.583C42.7658 8.32478 42.7169 8.07671 42.619 7.83846C42.5211 7.60057 42.3871 7.40251 42.2174 7.24476C42.0475 7.08687 41.8503 6.98217 41.6258 6.93061C41.4011 6.87888 41.1593 6.91337 40.9003 7.03381C40.641 7.15434 40.4352 7.32357 40.2826 7.54161C40.1299 7.75979 39.9903 7.98916 39.8638 8.23014C39.8175 8.0465 39.75 7.87595 39.6607 7.71806C39.5714 7.56026 39.4621 7.42262 39.3325 7.30491C39.2029 7.18742 39.0573 7.0956 38.8964 7.02953C38.7351 6.96369 38.5651 6.93061 38.3866 6.93061C38.2139 6.93061 38.0541 6.96369 37.9073 7.02953C37.7605 7.0956 37.6266 7.1801 37.5056 7.28339C37.3847 7.38681 37.2754 7.50284 37.1774 7.63202C37.0795 7.76106 36.993 7.88883 36.9183 8.01492C36.9066 7.86576 36.8937 7.73531 36.8794 7.62329C36.865 7.51149 36.839 7.4168 36.8016 7.3394C36.7642 7.26187 36.711 7.20312 36.6419 7.16294C36.5727 7.1229 36.4749 7.1027 36.3483 7.1027C36.2849 7.1027 36.2214 7.11558 36.1582 7.14133C36.0948 7.16722 36.0385 7.20312 35.9898 7.24899C35.9408 7.29508 35.9034 7.35087 35.8776 7.4168C35.8515 7.48278 35.8445 7.55885 35.8559 7.6449C35.8615 7.70814 35.8776 7.784 35.9034 7.873C35.9293 7.962 35.9537 8.07825 35.9768 8.22149C35.9998 8.36496 36.0185 8.53859 36.0329 8.74221C36.0473 8.94597 36.0516 9.19554 36.0459 9.49099C36.0401 9.78656 36.0185 10.1322 35.9811 10.528C35.9435 10.9239 35.8846 11.3829 35.804 11.905C35.7925 12.0255 35.8386 12.1231 35.9423 12.1977C36.0459 12.2721 36.1639 12.3152 36.2964 12.3267C36.4287 12.3382 36.5541 12.3152 36.6721 12.2579C36.7901 12.2004 36.8579 12.1001 36.8751 11.9567C36.8924 11.687 36.9255 11.4002 36.9745 11.096C37.0233 10.7921 37.0838 10.4908 37.1558 10.1924C37.2278 9.89413 37.3098 9.61011 37.402 9.34033C37.4941 9.07065 37.5963 8.83262 37.7086 8.62605C37.821 8.41947 37.9375 8.25457 38.0584 8.13122C38.1794 8.00782 38.306 7.94616 38.4385 7.94616C38.5997 7.94616 38.7249 8.0192 38.8143 8.16548C38.9034 8.31191 38.9667 8.49991 39.0043 8.7292C39.0417 8.95885 39.0589 9.20997 39.0562 9.48239C39.0531 9.7549 39.0417 10.0174 39.0215 10.2698C39.0013 10.5224 38.9784 10.7475 38.9524 10.9454C38.9265 11.1434 38.9077 11.2798 38.8964 11.3542C38.8964 11.4862 38.9466 11.5908 39.0474 11.6684C39.1481 11.7458 39.2604 11.7917 39.3843 11.8061C39.5082 11.8204 39.6246 11.7974 39.7341 11.7371C39.8435 11.6769 39.9068 11.5752 39.9241 11.4316C39.9816 11.0186 40.0609 10.6041 40.1616 10.1882C40.2623 9.77214 40.3776 9.3993 40.5072 9.06932C40.6367 8.73939 40.7806 8.4697 40.9391 8.26026C41.0974 8.05095 41.2658 7.94616 41.4444 7.94616C41.5364 7.94616 41.607 8.00936 41.6559 8.13545C41.7048 8.26167 41.7293 8.43376 41.7293 8.6518C41.7293 8.81251 41.7164 8.9775 41.6905 9.14672C41.6646 9.31599 41.6344 9.49099 41.5998 9.67172C41.5653 9.8525 41.5351 10.0375 41.5091 10.2268C41.4832 10.4162 41.4703 10.6141 41.4703 10.8206C41.4703 10.9641 41.4847 11.1305 41.5135 11.3198C41.5422 11.5091 41.5969 11.6886 41.6775 11.8577C41.7581 12.027 41.8689 12.1704 42.0102 12.288C42.1512 12.4056 42.331 12.4644 42.5499 12.4644C42.8782 12.4644 43.1689 12.3941 43.4224 12.2536C43.6757 12.1131 43.8931 11.9296 44.0745 11.7029C44.0839 11.691 44.0924 11.6783 44.1016 11.6665C44.1153 11.7 44.1277 11.7355 44.1436 11.7674C44.2675 12.0198 44.4355 12.2148 44.649 12.3526C44.862 12.4903 45.1125 12.5663 45.4005 12.5807C45.688 12.5949 46.002 12.5418 46.3421 12.4214C46.5952 12.3296 46.8153 12.2148 47.0027 12.0772C47.1897 11.9395 47.3582 11.7717 47.5077 11.5737C47.6577 11.3758 47.7944 11.1477 47.9183 10.8896C48.0422 10.6312 48.167 10.3359 48.2936 10.003C48.317 9.91137 48.2954 9.82956 48.2292 9.75772C48.1631 9.6861 48.0824 9.63586 47.9871 9.60707Z" fill="#0D0C23"/>
<path fill-rule="evenodd" clip-rule="evenodd" d="M52.6796 8.64681C52.6509 8.81611 52.6121 9.00271 52.5632 9.20625C52.5138 9.41 52.452 9.62081 52.3775 9.83885C52.3025 10.0569 52.2104 10.2535 52.101 10.4284C51.9916 10.6035 51.8664 10.7425 51.7252 10.8458C51.5841 10.949 51.4214 10.9921 51.237 10.9748C51.1448 10.9635 51.0743 10.9004 51.0258 10.7855C50.9768 10.6708 50.9508 10.5244 50.9477 10.3466C50.9451 10.1688 50.9605 9.97372 50.9953 9.76136C51.0297 9.54919 51.0831 9.34111 51.1554 9.13736C51.2269 8.93382 51.3151 8.74581 51.4187 8.57364C51.5224 8.40155 51.6414 8.26814 51.7773 8.17345C51.9122 8.07881 52.0609 8.03448 52.2218 8.04004C52.3832 8.04582 52.5557 8.12609 52.74 8.28102C52.7286 8.35568 52.7087 8.47767 52.6796 8.64681ZM55.75 9.30517C55.6609 9.2593 55.5688 9.24938 55.474 9.27513C55.3791 9.30093 55.3112 9.38848 55.2711 9.53763C55.2477 9.69834 55.1961 9.88754 55.1154 10.1056C55.0347 10.3236 54.9355 10.5303 54.8173 10.7252C54.6995 10.9203 54.5641 11.0825 54.4115 11.2115C54.2589 11.3407 54.0962 11.3996 53.9237 11.3879C53.7795 11.3765 53.6785 11.3034 53.6212 11.1685C53.5634 11.0337 53.5334 10.8645 53.5304 10.6607C53.5277 10.4572 53.548 10.2277 53.5908 9.97231C53.634 9.717 53.686 9.46314 53.7465 9.21052C53.8069 8.95817 53.8686 8.71569 53.9321 8.48332C53.9952 8.25098 54.0472 8.05446 54.0878 7.89384C54.1337 7.75038 54.1191 7.62852 54.0446 7.52797C53.9696 7.42772 53.8761 7.35588 53.7637 7.31288C53.6512 7.26988 53.5374 7.25841 53.4223 7.27848C53.3072 7.29859 53.2327 7.36024 53.1978 7.46344C52.8582 7.17082 52.5314 7.01307 52.2174 6.99014C51.9038 6.9672 51.6141 7.03609 51.3495 7.19671C51.0844 7.35733 50.8498 7.58967 50.6456 7.89384C50.441 8.19802 50.2756 8.52932 50.149 8.88787C50.022 9.24642 49.943 9.6123 49.9113 9.98518C49.8795 10.3582 49.9042 10.6981 49.9849 11.0051C50.0657 11.312 50.2077 11.5631 50.4123 11.758C50.6165 11.9531 50.8943 12.0507 51.2458 12.0507C51.4015 12.0507 51.551 12.0192 51.6948 11.9561C51.839 11.8928 51.9713 11.8183 52.0922 11.7322C52.213 11.6462 52.3197 11.5558 52.4119 11.4611C52.5041 11.3665 52.576 11.2876 52.628 11.2244C52.6681 11.431 52.7343 11.6061 52.8265 11.7495C52.9186 11.8928 53.0236 12.0106 53.1418 12.1023C53.2596 12.194 53.3835 12.2615 53.5132 12.3046C53.6428 12.3476 53.7681 12.3691 53.8889 12.3691C54.1597 12.3691 54.4128 12.2773 54.6492 12.0936C54.8852 11.9102 55.0969 11.6849 55.2839 11.4181C55.4709 11.1513 55.6252 10.8702 55.7461 10.5747C55.8669 10.2792 55.9476 10.0167 55.9877 9.78712C56.0283 9.70108 56.0208 9.6108 55.9661 9.51611C55.9114 9.42147 55.8396 9.35126 55.75 9.30517Z" fill="#0D0C23"/>
<path fill-rule="evenodd" clip-rule="evenodd" d="M71.3015 14.058C71.2525 14.253 71.1762 14.4181 71.0726 14.5528C70.9689 14.6876 70.8393 14.758 70.6836 14.7637C70.5857 14.7694 70.5111 14.7178 70.4591 14.6088C70.4075 14.4997 70.3713 14.3592 70.3515 14.1871C70.3312 14.015 70.3224 13.8227 70.3255 13.6104C70.3281 13.3982 70.3369 13.1888 70.3515 12.9822C70.3656 12.7757 70.3828 12.5833 70.4031 12.4056C70.4234 12.2276 70.4388 12.0902 70.4507 11.9925C70.6461 12.0155 70.8093 12.1 70.9385 12.2464C71.0682 12.3927 71.1674 12.5662 71.2366 12.7671C71.3059 12.9679 71.346 13.1845 71.3575 13.4169C71.3689 13.6492 71.3504 13.8629 71.3015 14.058ZM68.1746 14.058C68.1256 14.253 68.0493 14.4181 67.9457 14.5528C67.842 14.6876 67.7124 14.758 67.5571 14.7637C67.4592 14.7694 67.3843 14.7178 67.3327 14.6088C67.2806 14.4997 67.2445 14.3592 67.2246 14.1871C67.2043 14.015 67.1955 13.8227 67.1986 13.6104C67.2012 13.3982 67.2101 13.1888 67.2246 12.9822C67.2387 12.7757 67.2559 12.5833 67.2762 12.4056C67.2965 12.2276 67.3124 12.0902 67.3238 11.9925C67.5197 12.0155 67.6824 12.1 67.8116 12.2464C67.9413 12.3927 68.0405 12.5662 68.1097 12.7671C68.179 12.9679 68.2191 13.1845 68.2306 13.4169C68.2421 13.6492 68.2235 13.8629 68.1746 14.058ZM64.9657 9.16965C64.9599 9.30725 64.9472 9.42919 64.9269 9.53534C64.9066 9.64168 64.8792 9.70893 64.8448 9.73764C64.7813 9.70315 64.7037 9.61438 64.6115 9.47078C64.5194 9.32744 64.4475 9.16519 64.3954 8.9845C64.3438 8.80377 64.328 8.62604 64.3482 8.45091C64.3681 8.276 64.4589 8.13985 64.6204 8.04212C64.6834 8.00772 64.7381 8.0206 64.7844 8.08089C64.8303 8.14113 64.8678 8.22858 64.8969 8.34334C64.9255 8.45823 64.9454 8.59009 64.9573 8.73925C64.9688 8.88854 64.9714 9.03187 64.9657 9.16965ZM64.2014 10.8866C64.1119 10.9812 64.0126 11.0629 63.9032 11.1318C63.7939 11.2007 63.6814 11.2523 63.5667 11.2867C63.4512 11.3213 63.3476 11.3298 63.2554 11.3125C62.9965 11.261 62.7976 11.149 62.6596 10.9769C62.5215 10.8048 62.4333 10.6026 62.3963 10.3702C62.3588 10.1378 62.3627 9.88962 62.4091 9.62571C62.4549 9.36184 62.5325 9.11659 62.6424 8.88995C62.7517 8.66326 62.884 8.46815 63.0397 8.30471C63.195 8.14113 63.3648 8.03938 63.5491 7.99908C63.4799 8.2917 63.4569 8.59446 63.4799 8.90706C63.5032 9.21979 63.5782 9.51382 63.7048 9.7892C63.7851 9.95582 63.8816 10.1077 63.9941 10.2454C64.1061 10.3831 64.2433 10.5007 64.4043 10.5983C64.3584 10.6959 64.2905 10.7919 64.2014 10.8866ZM73.7589 9.25569C73.776 9.12382 73.8016 8.9845 73.8365 8.83817C73.8709 8.69197 73.9141 8.54992 73.9661 8.41227C74.0177 8.27445 74.0781 8.15546 74.1474 8.05508C74.2166 7.95475 74.2898 7.88291 74.3675 7.83991C74.4455 7.79686 74.5245 7.80114 74.6052 7.85279C74.6916 7.90452 74.745 8.0135 74.7648 8.17981C74.7851 8.34629 74.7648 8.52407 74.7044 8.71349C74.644 8.90282 74.5359 9.08069 74.3807 9.24696C74.2255 9.41358 74.0151 9.52242 73.75 9.57407C73.7386 9.49384 73.7416 9.38769 73.7589 9.25569ZM77.2399 9.25569C77.2571 9.12382 77.2826 8.9845 77.3175 8.83817C77.3519 8.69197 77.3951 8.54992 77.4471 8.41227C77.4987 8.27445 77.5592 8.15546 77.6284 8.05508C77.6977 7.95475 77.7709 7.88291 77.8485 7.83991C77.9265 7.79686 78.0055 7.80114 78.0862 7.85279C78.1726 7.90452 78.2256 8.0135 78.2458 8.17981C78.2661 8.34629 78.2458 8.52407 78.1854 8.71349C78.125 8.90282 78.0169 9.08069 77.8617 9.24696C77.706 9.41358 77.4957 9.52242 77.231 9.57407C77.2196 9.49384 77.2222 9.38769 77.2399 9.25569ZM80.4743 9.75916C80.4082 9.68754 80.3275 9.63731 80.2327 9.60847C80.1378 9.57989 80.047 9.57702 79.9606 9.59995C79.8741 9.62289 79.8194 9.68318 79.7965 9.78064C79.7502 9.96433 79.677 10.1522 79.576 10.3443C79.4754 10.5366 79.3515 10.7188 79.2046 10.8908C79.0578 11.0629 78.8924 11.2151 78.708 11.347C78.5237 11.479 78.331 11.5737 78.1294 11.6309C77.9279 11.6943 77.7607 11.7014 77.6284 11.6525C77.4957 11.6038 77.3907 11.5206 77.3131 11.403C77.2355 11.2853 77.1794 11.1434 77.1446 10.9769C77.1102 10.8106 77.0899 10.6385 77.0842 10.4606C77.4123 10.4836 77.7047 10.4248 77.9609 10.2841C78.2172 10.1436 78.4346 9.95701 78.6132 9.72463C78.7914 9.49243 78.9268 9.23135 79.019 8.94159C79.1111 8.65179 79.1627 8.36354 79.1746 8.07661C79.1799 7.80692 79.1398 7.57882 79.0534 7.39236C78.9674 7.20598 78.8505 7.06097 78.7036 6.95781C78.5568 6.85439 78.3883 6.79424 78.1982 6.77699C78.0086 6.75975 77.8154 6.78572 77.6196 6.85439C77.3836 6.93488 77.1834 7.06534 77.0193 7.24607C76.8553 7.42684 76.7186 7.63638 76.6092 7.87431C76.4998 8.11255 76.4134 8.36914 76.3499 8.6446C76.2864 8.91998 76.2405 9.19117 76.2118 9.4579C76.184 9.71678 76.1686 9.96455 76.1651 10.2017C76.1435 10.249 76.1201 10.2965 76.095 10.3443C75.9944 10.5366 75.8705 10.7188 75.7236 10.8908C75.5772 11.0629 75.4114 11.2151 75.227 11.347C75.0427 11.479 74.8499 11.5737 74.6484 11.6309C74.4468 11.6943 74.2797 11.7014 74.1474 11.6525C74.0151 11.6038 73.9097 11.5206 73.8321 11.403C73.7544 11.2853 73.6984 11.1434 73.6636 10.9769C73.6292 10.8106 73.6089 10.6385 73.6032 10.4606C73.9313 10.4836 74.2237 10.4248 74.4799 10.2841C74.7362 10.1436 74.9536 9.95701 75.1322 9.72463C75.3104 9.49243 75.4458 9.23135 75.5379 8.94159C75.6301 8.65179 75.6822 8.36354 75.6936 8.07661C75.6994 7.80692 75.6588 7.57882 75.5728 7.39236C75.4863 7.20598 75.3695 7.06097 75.2226 6.95781C75.0758 6.85439 74.9073 6.79424 74.7176 6.77699C74.5276 6.75975 74.3344 6.78572 74.1386 6.85439C73.9026 6.93488 73.7024 7.06534 73.5383 7.24607C73.3743 7.42684 73.2376 7.63638 73.1282 7.87431C73.0188 8.11255 72.9324 8.36914 72.8693 8.6446C72.8058 8.91998 72.7595 9.19117 72.7308 9.4579C72.7145 9.60838 72.7035 9.75422 72.6955 9.89747C72.64 9.94466 72.5857 9.99216 72.5279 10.0388C72.3295 10.1995 72.1204 10.3443 71.9017 10.4734C71.6825 10.6026 71.4554 10.7087 71.2194 10.7919C70.983 10.8751 70.7414 10.9254 70.4939 10.9425L71.0293 5.22789C71.0637 5.10731 71.0465 5.00134 70.9777 4.90951C70.9085 4.81765 70.819 4.75458 70.7096 4.72018C70.6002 4.68565 70.4838 4.6886 70.3599 4.72869C70.2359 4.76896 70.1341 4.86078 70.0533 5.00403C70.0128 5.2222 69.9713 5.52051 69.9281 5.89913C69.8849 6.2778 69.8417 6.69095 69.7984 7.1385C69.7552 7.58605 69.712 8.0479 69.6688 8.52407C69.6256 9.00042 69.5881 9.44502 69.5568 9.85809C69.555 9.87643 69.5541 9.89302 69.5523 9.91114C69.5021 9.9537 69.4531 9.99661 69.4011 10.0388C69.2026 10.1995 68.9936 10.3443 68.7748 10.4734C68.5561 10.6026 68.3285 10.7087 68.0925 10.7919C67.8562 10.8751 67.6145 10.9254 67.3671 10.9425L67.9025 5.22789C67.9373 5.10731 67.9197 5.00134 67.8509 4.90951C67.7816 4.81765 67.6921 4.75458 67.5827 4.72018C67.4734 4.68565 67.3569 4.6886 67.233 4.72869C67.1091 4.76896 67.0072 4.86078 66.9265 5.00403C66.8863 5.2222 66.8444 5.52051 66.8012 5.89913C66.758 6.2778 66.7148 6.69095 66.6716 7.1385C66.6283 7.58605 66.5856 8.0479 66.5419 8.52407C66.4991 9.00042 66.4612 9.44502 66.4299 9.85809C66.429 9.86638 66.4286 9.87392 66.4281 9.88221C66.3373 9.92402 66.2389 9.96071 66.1317 9.9915C66.0224 10.0232 65.8984 10.0418 65.7604 10.0475C65.7833 9.94413 65.8019 9.82938 65.8164 9.70315C65.831 9.57702 65.8424 9.44502 65.8513 9.30725C65.8596 9.16965 65.8627 9.03187 65.8596 8.89418C65.8565 8.7564 65.8495 8.63027 65.838 8.51543C65.8094 8.26889 65.756 8.03502 65.6784 7.81402C65.6008 7.59324 65.4958 7.40828 65.363 7.25895C65.2307 7.10979 65.0653 7.00933 64.8664 6.95781C64.668 6.90617 64.436 6.92328 64.1714 7.00933C63.7793 6.95781 63.4269 6.99371 63.1129 7.11698C62.7994 7.24047 62.5272 7.41966 62.2966 7.65485C62.0664 7.89023 61.8781 8.16693 61.7312 8.48539C61.5843 8.80377 61.4864 9.13092 61.4375 9.46641C61.4167 9.60869 61.4066 9.7503 61.4035 9.8916C61.3144 10.0735 61.2165 10.2325 61.1089 10.3659C60.9568 10.5552 60.7984 10.7101 60.6339 10.8306C60.4699 10.9511 60.3071 11.0429 60.1462 11.1061C59.9847 11.1693 59.841 11.2123 59.7144 11.2351C59.5644 11.2638 59.4207 11.2668 59.2822 11.2437C59.1441 11.2209 59.0171 11.1549 58.9025 11.0458C58.8103 10.9655 58.7397 10.8364 58.6908 10.6585C58.6418 10.4806 58.6131 10.2786 58.6043 10.0518C58.5955 9.8251 58.6043 9.5884 58.6303 9.34173C58.6564 9.09511 58.7005 8.86124 58.764 8.64033C58.8275 8.41946 58.9078 8.22148 59.0061 8.04635C59.1036 7.87157 59.2187 7.74668 59.3514 7.6721C59.426 7.68365 59.4723 7.72798 59.4895 7.80542C59.5071 7.88291 59.5111 7.97473 59.5027 8.08089C59.4939 8.18713 59.4811 8.29606 59.4639 8.40786C59.4462 8.51979 59.4379 8.61316 59.4379 8.6876C59.4665 8.84254 59.5225 8.96307 59.6063 9.04911C59.6897 9.13516 59.7832 9.18548 59.8868 9.19968C59.9905 9.2141 60.0928 9.18976 60.1938 9.12656C60.2943 9.06353 60.3764 8.96307 60.4399 8.82529C60.4456 8.83107 60.454 8.83394 60.4655 8.83394L60.5867 7.74099C60.6211 7.59174 60.5982 7.45983 60.5175 7.34508C60.4368 7.23032 60.3305 7.16426 60.1977 7.14715C60.031 6.90617 59.8048 6.77854 59.5199 6.76411C59.235 6.74978 58.9426 6.84306 58.6431 7.04386C58.4588 7.17594 58.296 7.35796 58.1554 7.59029C58.0138 7.82275 57.8987 8.08088 57.8096 8.36486C57.7201 8.64884 57.657 8.94878 57.6195 9.26433C57.582 9.57989 57.575 9.88689 57.5979 10.1851C57.6208 10.4836 57.6742 10.7647 57.758 11.0285C57.8413 11.2926 57.9578 11.5134 58.1077 11.6912C58.2343 11.8461 58.3781 11.9596 58.5395 12.0313C58.7005 12.103 58.8689 12.1474 59.0449 12.1646C59.2204 12.1818 59.3946 12.1745 59.5675 12.1431C59.74 12.1116 59.9045 12.0672 60.0597 12.0097C60.2613 11.9352 60.4685 11.8405 60.6816 11.7257C60.8946 11.611 61.0992 11.4733 61.295 11.3125C61.3978 11.228 61.497 11.1359 61.5927 11.037C61.6364 11.1449 61.6853 11.2493 61.744 11.347C61.8997 11.6051 62.1096 11.8147 62.3747 11.9753C62.6393 12.1359 62.9647 12.2132 63.3506 12.2076C63.7652 12.2018 64.148 12.0972 64.4995 11.8935C64.8506 11.69 65.1386 11.3899 65.363 10.9941C65.6995 10.9941 66.0303 10.9389 66.3558 10.8292C66.3531 10.8639 66.3505 10.9005 66.3479 10.934C66.3249 11.2381 66.313 11.4445 66.313 11.5536C66.3077 11.7429 66.2945 11.9767 66.2742 12.2549C66.2544 12.5332 66.2411 12.8258 66.2354 13.1327C66.2297 13.4397 66.2411 13.7495 66.2702 14.0623C66.2989 14.3749 66.3593 14.659 66.4515 14.9144C66.5437 15.1696 66.6747 15.3862 66.8444 15.5642C67.0142 15.7419 67.2374 15.8482 67.5139 15.8826C67.8076 15.9226 68.0608 15.871 68.2738 15.7277C68.4868 15.5841 68.6597 15.3878 68.7925 15.1381C68.9248 14.8884 69.0183 14.6002 69.073 14.2732C69.1276 13.9462 69.1435 13.6177 69.1206 13.2877C69.0972 12.9577 69.0368 12.6466 68.9389 12.354C68.841 12.0613 68.7056 11.8203 68.5331 11.6309C68.6368 11.6024 68.7607 11.5479 68.9045 11.4675C69.0483 11.3872 69.1964 11.2968 69.3495 11.1963C69.387 11.1717 69.424 11.1457 69.4611 11.1203C69.4469 11.3237 69.4399 11.4687 69.4399 11.5536C69.4342 11.7429 69.4214 11.9767 69.4011 12.2549C69.3812 12.5332 69.368 12.8258 69.3623 13.1327C69.3565 13.4397 69.368 13.7495 69.3967 14.0623C69.4258 14.3749 69.4862 14.659 69.5784 14.9144C69.6701 15.1696 69.8011 15.3862 69.9713 15.5642C70.1411 15.7419 70.3643 15.8482 70.6408 15.8826C70.9341 15.9226 71.1877 15.871 71.4007 15.7277C71.6137 15.5841 71.7866 15.3878 71.9189 15.1381C72.0512 14.8884 72.1447 14.6002 72.1998 14.2732C72.2545 13.9462 72.2699 13.6177 72.247 13.2877C72.2241 12.9577 72.1637 12.6466 72.0658 12.354C71.9678 12.0613 71.8324 11.8203 71.6596 11.6309C71.7636 11.6024 71.8871 11.5479 72.0313 11.4675C72.1751 11.3872 72.3233 11.2968 72.4763 11.1963C72.5553 11.1442 72.6342 11.0904 72.7127 11.035C72.7427 11.3156 72.8062 11.5617 72.9077 11.7687C73.0316 12.0212 73.2001 12.2162 73.4131 12.354C73.6261 12.4916 73.8766 12.5677 74.1646 12.582C74.4526 12.5962 74.7661 12.5433 75.1062 12.4227C75.3593 12.331 75.5798 12.2162 75.7668 12.0786C75.9538 11.9408 76.1223 11.773 76.2723 11.5751C76.2811 11.5637 76.289 11.5512 76.2974 11.5396C76.3243 11.62 76.3538 11.6972 76.3887 11.7687C76.5126 12.0212 76.6811 12.2162 76.8941 12.354C77.1071 12.4916 77.3576 12.5677 77.6456 12.582C77.9336 12.5962 78.2472 12.5433 78.5872 12.4227C78.8403 12.331 79.0609 12.2162 79.2479 12.0786C79.4348 11.9408 79.6033 11.773 79.7533 11.5751C79.9028 11.3771 80.0395 11.149 80.1634 10.8908C80.2874 10.6326 80.4126 10.3373 80.5392 10.0044C80.5621 9.91269 80.5405 9.83088 80.4743 9.75916Z" fill="#0D0C23"/>
<mask id="mask0_425_768" style="mask-type:luminance" maskUnits="userSpaceOnUse" x="81" y="3" width="5" height="5">
<path d="M85.9219 3.5282H81.5897V7.86033H85.9219V3.5282Z" fill="white"/>
</mask>
<g mask="url(#mask0_425_768)">
<path fill-rule="evenodd" clip-rule="evenodd" d="M83.5527 4.07056C82.6354 4.07056 81.8918 4.81422 81.8918 5.73155C81.8918 6.64888 82.6354 7.39254 83.5527 7.39254C84.4701 7.39254 85.2136 6.64888 85.2136 5.73155C85.2136 4.81422 84.4701 4.07056 83.5527 4.07056ZM81.5897 5.73155C81.5897 4.64742 82.4687 3.76855 83.5527 3.76855C84.6368 3.76855 85.5157 4.64742 85.5157 5.73155C85.5157 6.81568 84.6368 7.69456 83.5527 7.69456C82.4687 7.69456 81.5897 6.81568 81.5897 5.73155ZM82.949 4.97652C82.949 4.89312 83.0164 4.82551 83.0998 4.82551H83.704C83.8641 4.82551 84.0176 4.88915 84.1309 5.0024C84.2443 5.11566 84.3078 5.26931 84.3078 5.42949C84.3078 5.58967 84.2443 5.74333 84.1309 5.85658C84.0859 5.90174 84.0343 5.93901 83.9783 5.9675L84.2804 6.40041C84.328 6.46877 84.3113 6.56293 84.2429 6.61065C84.1746 6.65837 84.0806 6.64161 84.033 6.5732L83.6564 6.03348H83.2506V6.4865C83.2506 6.5699 83.1831 6.63751 83.0998 6.63751C83.0164 6.63751 82.949 6.5699 82.949 6.4865V4.97652ZM83.7349 5.72992C83.7274 5.72988 83.7203 5.73036 83.7128 5.73137C83.7097 5.73146 83.7066 5.73151 83.704 5.73151H83.2506V5.12748H83.704C83.7838 5.12748 83.8606 5.15932 83.9175 5.21595C83.9739 5.27258 84.0057 5.3494 84.0057 5.42949C84.0057 5.50958 83.9739 5.58641 83.9175 5.64304C83.8681 5.69234 83.8032 5.72286 83.7349 5.72992Z" fill="#0D0C23"/>
</g>
</svg>
