<svg width="30" height="30" viewBox="0 0 30 30" fill="none" xmlns="http://www.w3.org/2000/svg">
<g clip-path="url(#clip0_247_361)">
<path d="M0 15C0 16.8348 0.330059 18.5924 0.932988 20.2174L15 21.5217L29.067 20.2174C29.6699 18.5924 30 16.8348 30 15C30 13.1652 29.6699 11.4076 29.067 9.78264L15 8.47829L0.932988 9.78264C0.330059 11.4076 0 13.1652 0 15H0Z" fill="#FFDA44"/>
<path d="M29.067 9.78264C26.9476 4.07068 21.4495 0 15 0C8.55052 0 3.05238 4.07068 0.932983 9.78264H29.067Z" fill="#D80027"/>
<path d="M0.932983 20.2174C3.05238 25.9293 8.55052 30 15 30C21.4495 30 26.9476 25.9293 29.067 20.2174H0.932983Z" fill="#D80027"/>
</g>
<defs>
<clipPath id="clip0_247_361">
<rect width="30" height="30" fill="white"/>
</clipPath>
</defs>
</svg>
