<svg width="135" height="129" viewBox="0 0 135 129" fill="none" xmlns="http://www.w3.org/2000/svg">
<g filter="url(#filter0_dddd_425_1379)">
<rect x="33" y="25.6224" width="70.4068" height="70.4068" rx="17.6017" fill="#100F0E"/>
<path d="M54.2687 41.7573C64.6519 44.4897 55.9113 91.1475 74.871 77.2716C90.0388 66.1708 79.8898 66.8043 74.871 70.6745" stroke="white" stroke-width="4.40043"/>
</g>
<g clip-path="url(#clip0_425_1379)">
<path d="M31.5567 24.5625C36.8347 27.572 43.5531 25.733 46.5625 20.455C49.572 15.177 47.733 8.45864 42.455 5.44915C37.177 2.43967 30.4586 4.27867 27.4492 9.55669C24.4397 14.8347 26.2787 21.553 31.5567 24.5625Z" fill="#F0F0F0"/>
<path d="M46.5625 20.4549C48.9055 16.3459 48.3094 11.3642 45.4401 7.93884L35.2197 25.8634C39.6288 26.5881 44.2196 24.564 46.5625 20.4549Z" fill="#D80027"/>
<path d="M27.4492 9.55675C25.1062 13.6658 25.7024 18.6475 28.5716 22.0728L38.792 4.14829C34.3829 3.42356 29.7921 5.44771 27.4492 9.55675Z" fill="#0052B4"/>
</g>
<g clip-path="url(#clip1_425_1379)">
<path d="M6.85054 83.3073C7.68849 84.3601 8.68055 85.2178 9.76862 85.8748L18.4354 80.1988L25.9109 73.026C25.5147 71.8183 24.9014 70.6591 24.0634 69.6064C23.2255 68.5536 22.2334 67.6959 21.1453 67.0389L12.4785 72.7149L5.00308 79.8877C5.39927 81.0954 6.01258 82.2546 6.85054 83.3073V83.3073Z" fill="#FFDA44"/>
<path d="M21.1453 67.039C17.3206 64.7296 12.3069 64.905 8.60646 67.8505C4.906 70.796 3.61045 75.6426 5.00306 79.8878L21.1453 67.039Z" fill="#D80027"/>
<path d="M9.76862 85.8749C13.5933 88.1843 18.607 88.0089 22.3075 85.0634C26.0079 82.1179 27.3035 77.2713 25.9109 73.0261L9.76862 85.8749Z" fill="#D80027"/>
</g>
<g clip-path="url(#clip2_425_1379)">
<path d="M65.3937 122.02C70.1149 118.197 70.8429 111.27 67.0197 106.549C63.1965 101.827 56.2699 101.099 51.5486 104.923C46.8273 108.746 46.0993 115.672 49.9225 120.394C53.7457 125.115 60.6724 125.843 65.3937 122.02Z" fill="#F0F0F0"/>
<path d="M51.5486 104.923C48.1594 107.667 46.8282 112.011 47.761 115.99L63.1617 103.519C59.4634 101.779 54.9378 102.178 51.5486 104.923Z" fill="#FF9811"/>
<path d="M65.3937 122.02C68.7828 119.275 70.1141 114.932 69.1813 110.952L53.7806 123.424C57.4789 125.163 62.0045 124.764 65.3937 122.02Z" fill="#6DA544"/>
<path d="M60.8789 116.445C62.5211 115.115 62.7743 112.705 61.4445 111.063C60.1147 109.421 57.7054 109.168 56.0633 110.498C54.4211 111.827 54.1679 114.237 55.4977 115.879C56.8275 117.521 59.2367 117.774 60.8789 116.445Z" fill="#0052B4"/>
<path d="M59.976 115.33C61.0024 114.498 61.1606 112.993 60.3295 111.966C59.4984 110.94 57.9926 110.782 56.9662 111.613C55.9399 112.444 55.7816 113.95 56.6127 114.976C57.4439 116.002 58.9497 116.161 59.976 115.33Z" fill="#F0F0F0"/>
<path d="M56.6141 111.178L58.2403 112.014L59.5286 110.716L59.6177 112.543L61.3856 113.01L59.8485 114L60.3281 115.764L58.7019 114.928L57.4136 116.226L57.3245 114.4L55.5566 113.933L57.0937 112.942L56.6141 111.178Z" fill="#0052B4"/>
</g>
<g clip-path="url(#clip3_425_1379)">
<g filter="url(#filter1_d_425_1379)">
<path d="M102.766 28.1786C107.607 31.8498 114.507 30.9015 118.179 26.0604C121.85 21.2193 120.901 14.3187 116.06 10.6474C111.219 6.97614 104.319 7.92449 100.647 12.7656C96.9761 17.6067 97.9245 24.5073 102.766 28.1786Z" fill="#D80027"/>
</g>
<path d="M108.046 12.9727L107.037 15.8749L109.486 17.7315L106.413 17.6722L105.404 20.5744L104.512 17.6328L101.439 17.5675L103.965 15.8156L103.076 12.8706L105.524 14.7272L108.046 12.9727Z" fill="#FFDA44"/>
<path d="M107.391 25.4572L107.353 24.3062L106.245 23.9891L107.325 23.5952L107.289 22.4408L107.997 23.3496L109.081 22.9583L108.433 23.9123L109.144 24.8236L108.036 24.5006L107.391 25.4572Z" fill="#FFDA44"/>
<path d="M110.126 24.241L111.064 23.5722L110.717 22.4728L111.645 23.155L112.58 22.4836L112.219 23.5792L113.144 24.2648L111.992 24.2544L111.627 25.3474L111.28 24.248L110.126 24.241Z" fill="#FFDA44"/>
<path d="M115.509 20.3634L114.48 20.8822L114.651 22.021L113.843 21.2028L112.815 21.7182L113.343 20.6948L112.531 19.874L113.671 20.064L114.201 19.0371L114.373 20.176L115.509 20.3634Z" fill="#FFDA44"/>
<path d="M114.727 15.8333L113.966 16.6956L114.556 17.6879L113.496 17.2294L112.735 18.0977L112.844 16.9509L111.784 16.4923L112.909 16.2396L113.012 15.0936L113.603 16.086L114.727 15.8333Z" fill="#FFDA44"/>
</g>
<g clip-path="url(#clip4_425_1379)">
<path d="M109.872 91.0468C112.397 95.0467 117.074 96.8631 121.446 95.9415L116.748 86.7066L110.432 78.493C107.719 82.0435 107.347 87.0469 109.872 91.0468Z" fill="#6DA544"/>
<path d="M128.478 79.303C125.235 74.1652 118.441 72.629 113.303 75.872C112.165 76.5902 111.204 77.483 110.432 78.4931L121.446 95.9416C122.69 95.6794 123.909 95.1961 125.047 94.4778C130.185 91.2348 131.721 84.4408 128.478 79.303Z" fill="#D80027"/>
<path d="M117.981 90.4531C119.769 89.3251 120.303 86.962 119.175 85.1749C118.047 83.3878 115.684 82.8535 113.897 83.9815C112.11 85.1095 111.575 87.4726 112.703 89.2597C113.831 91.0468 116.194 91.5811 117.981 90.4531Z" fill="#FFDA44"/>
<path d="M113.098 86.7482L114.374 88.7705C115.009 89.7758 116.338 90.0763 117.343 89.4418C118.348 88.8073 118.649 87.4781 118.014 86.4728L116.738 84.4505L113.098 86.7482Z" fill="#D80027"/>
<path d="M116.577 88.2285C116.243 88.4396 115.799 88.3393 115.588 88.0047L115.077 87.1958L116.29 86.4299L116.801 87.2389C117.012 87.5734 116.912 88.0173 116.577 88.2285Z" fill="#F0F0F0"/>
</g>
<defs>
<filter id="filter0_dddd_425_1379" x="22.7323" y="15.3548" width="92.409" height="90.9422" filterUnits="userSpaceOnUse" color-interpolation-filters="sRGB">
<feFlood flood-opacity="0" result="BackgroundImageFix"/>
<feColorMatrix in="SourceAlpha" type="matrix" values="0 0 0 0 0 0 0 0 0 0 0 0 0 0 0 0 0 0 127 0" result="hardAlpha"/>
<feOffset dx="-2.93362"/>
<feGaussianBlur stdDeviation="3.66702"/>
<feComposite in2="hardAlpha" operator="out"/>
<feColorMatrix type="matrix" values="0 0 0 0 0.53 0 0 0 0 0.496 0 0 0 0 0.47 0 0 0 0.08 0"/>
<feBlend mode="normal" in2="BackgroundImageFix" result="effect1_dropShadow_425_1379"/>
<feColorMatrix in="SourceAlpha" type="matrix" values="0 0 0 0 0 0 0 0 0 0 0 0 0 0 0 0 0 0 127 0" result="hardAlpha"/>
<feOffset dx="4.40043"/>
<feGaussianBlur stdDeviation="3.66702"/>
<feComposite in2="hardAlpha" operator="out"/>
<feColorMatrix type="matrix" values="0 0 0 0 0.53 0 0 0 0 0.496 0 0 0 0 0.47 0 0 0 0.08 0"/>
<feBlend mode="normal" in2="effect1_dropShadow_425_1379" result="effect2_dropShadow_425_1379"/>
<feColorMatrix in="SourceAlpha" type="matrix" values="0 0 0 0 0 0 0 0 0 0 0 0 0 0 0 0 0 0 127 0" result="hardAlpha"/>
<feOffset dy="-2.93362"/>
<feGaussianBlur stdDeviation="3.66702"/>
<feComposite in2="hardAlpha" operator="out"/>
<feColorMatrix type="matrix" values="0 0 0 0 0.53 0 0 0 0 0.496 0 0 0 0 0.47 0 0 0 0.1 0"/>
<feBlend mode="normal" in2="effect2_dropShadow_425_1379" result="effect3_dropShadow_425_1379"/>
<feColorMatrix in="SourceAlpha" type="matrix" values="0 0 0 0 0 0 0 0 0 0 0 0 0 0 0 0 0 0 127 0" result="hardAlpha"/>
<feOffset dy="2.93362"/>
<feGaussianBlur stdDeviation="3.66702"/>
<feComposite in2="hardAlpha" operator="out"/>
<feColorMatrix type="matrix" values="0 0 0 0 0.53 0 0 0 0 0.496 0 0 0 0 0.47 0 0 0 0.1 0"/>
<feBlend mode="normal" in2="effect3_dropShadow_425_1379" result="effect4_dropShadow_425_1379"/>
<feBlend mode="normal" in="SourceGraphic" in2="effect4_dropShadow_425_1379" result="shape"/>
</filter>
<filter id="filter1_d_425_1379" x="92.5441" y="4.01095" width="33.7378" height="33.7378" filterUnits="userSpaceOnUse" color-interpolation-filters="sRGB">
<feFlood flood-opacity="0" result="BackgroundImageFix"/>
<feColorMatrix in="SourceAlpha" type="matrix" values="0 0 0 0 0 0 0 0 0 0 0 0 0 0 0 0 0 0 127 0" result="hardAlpha"/>
<feOffset dy="1.46681"/>
<feGaussianBlur stdDeviation="2.93362"/>
<feComposite in2="hardAlpha" operator="out"/>
<feColorMatrix type="matrix" values="0 0 0 0 0.404 0 0 0 0 0.399466 0 0 0 0 0.396 0 0 0 1 0"/>
<feBlend mode="normal" in2="BackgroundImageFix" result="effect1_dropShadow_425_1379"/>
<feBlend mode="normal" in="SourceGraphic" in2="effect1_dropShadow_425_1379" result="shape"/>
</filter>
<clipPath id="clip0_425_1379">
<rect width="22.0021" height="22.0021" fill="white" transform="translate(32.8983) rotate(29.6915)"/>
</clipPath>
<clipPath id="clip1_425_1379">
<rect width="22" height="22" fill="white" transform="translate(0 74.7009) rotate(-38.5188)"/>
</clipPath>
<clipPath id="clip2_425_1379">
<rect width="22" height="22" fill="white" transform="translate(43 111.845) rotate(-39)"/>
</clipPath>
<clipPath id="clip3_425_1379">
<rect x="107.295" y="4" width="22.0021" height="22.0021" rx="11.0011" transform="rotate(37.1749 107.295 4)" fill="white"/>
</clipPath>
<clipPath id="clip4_425_1379">
<rect width="22.0021" height="22.0021" fill="white" transform="translate(104 81.7439) rotate(-32.2598)"/>
</clipPath>
</defs>
</svg>
